Format : AVI
Format/Info : Audio Video Interleave
File size : 1.52 GiB
Duration : 1h 45mn
Overall bit rate : 2 067 Kbps
Writing library : VirtualDub build 32839/release

Video
ID : 0
Format : MPEG-4 Visual
Format profile : Advanced Simple@L5
Format settings, BVOP : Yes
Format settings, QPel : No
Format settings, GMC : No warppoints
Format settings, Matrix : Custom
Codec ID : XVID
Codec ID/Hint : XviD
Duration : 1h 45mn
Bit rate : 1 607 Kbps
Width : 720 pixels
Height : 420 pixels
Display aspect ratio : 16:9
Frame rate : 29.970 fps
Color space : YUV
Chroma subsampling : 4:2:0
Bit depth : 8 bits
Scan type : Progressive
Bits/(Pixel*Frame) : 0.177
Stream size : 1.18 GiB (78%)
Writing library : XviD 1.2.1 (UTC 2008-12-04)

Audio
ID : 1
Format : AC-3
Format/Info : Audio Coding 3
Mode extension : CM (complete main)
Codec ID : 2000
Duration : 1h 45mn
Bit rate mode : Constant
Bit rate : 448 Kbps
Channel(s) : 6 channels
Channel positions : Front: L C R, Side: L R, LFE
Sampling rate : 48.0 KHz
Bit depth : 16 bits
Stream size : 337 MiB (22%)
Alignment : Aligned on interleaves
Interleave, duration : 33 ms (1.00 video frame)
Interleave, preload duration : 512 ms



 
http://www.imdb.com/title/tt1702443/








Users: 1.2/10 (37,371 votes) 162 reviews | Critics: 75 reviews Metascore: 52/100 (based on 22 reviews from Metacritic.com)

Follows Justin Bieber with some footage of performances from his 2010 concert tour.
Director:
Jon Chu
Stars:
Justin Bieber, Boys II Men and Miley Cyrus














Source used

Justin.Bieber.Never.Say.Never.2011.NTSC.DVDR-TDP ......... Thanks

Bit of a strange one this and we all know the issues the Defaced release had ,the vobs were in sync but no matter what i used to do the encode it would take it way outta sync /all over the place so in the end just synced it the best i could.If theres slight oos time to time well then one thing im not is a syncer but gave it a go...Was it worth it hell no Justin bieber talk about embarrassing all you gotta do is check out the imdb rating boy thats bad . Im off to hide now and dont be telling fibs saying my daughter wants this or my neice you wanna sit alone and watch it i just know you do and so does everyone else ...

Check out the sample 1st



Greetz to Imagine ,Flawl3ss,DiLLoN,BDK,NOiR,TOXiCiNK,THC,Ez,Rx,Boobyblue,TaRiQ786,LKRG